# xmcd CD database file
#
# Track frame offsets:
#	150
#	19947
#	38417
#	57202
#	76575
#	98437
#	116085
#	137945
#	158805
#	173930
#
# Disc length: 2556 seconds
#
# Revision: 0
# Processed by: cddbd v1.5PL3 Copyright (c) Steve Scherf et al.
# Submitted via: CDex 1.51
#
DISCID=7109fa0a
DTITLE=河合奈保子 - Bookcase
DYEAR=1900
DGENRE=JPop
TTITLE0=美・感性
TTITLE1=風に吹かれて
TTITLE2=今日を生きよう
TTITLE3=哀しみをしるまえに
TTITLE4=朝への誓い
TTITLE5=心の窓に光りを
TTITLE6=Motion Poet
TTITLE7=霧情
TTITLE8=街角・On the street
TTITLE9=美・来
EXTD=
EXTT0=
EXTT1=
EXTT2=
EXTT3=
EXTT4=
EXTT5=
EXTT6=
EXTT7=
EXTT8=
EXTT9=
PLAYORDER=
